<?xml version="1.0" encoding="UTF-8" standalone="no"?>
<svg
   width="100"
   height="100"
   viewBox="0 0 280 280"
   fill="none"
   version="1.1"
   id="svg32"
   sodipodi:docname="beaubus_red_zig_zag_pattern.svg"
   inkscape:version="1.4.3 (fcd0343856, 2026-01-01)"
   xmlns:inkscape="http://www.inkscape.org/namespaces/inkscape"
   xmlns:sodipodi="http://sodipodi.sourceforge.net/DTD/sodipodi-0.dtd"
   xmlns="http://www.w3.org/2000/svg"
   xmlns:svg="http://www.w3.org/2000/svg">
  <defs
     id="defs32" />
  <sodipodi:namedview
     id="namedview32"
     pagecolor="#505050"
     bordercolor="#eeeeee"
     borderopacity="1"
     inkscape:showpageshadow="0"
     inkscape:pageopacity="0"
     inkscape:pagecheckerboard="0"
     inkscape:deskcolor="#505050"
     inkscape:zoom="8.35"
     inkscape:cx="50"
     inkscape:cy="50"
     inkscape:window-width="1920"
     inkscape:window-height="1043"
     inkscape:window-x="0"
     inkscape:window-y="0"
     inkscape:window-maximized="1"
     inkscape:current-layer="svg32" />
  <rect
     width="280"
     height="280"
     fill="#7B0F0C"
     id="rect1"
     style="fill:#333333" />
  <path
     d="M42.7164 205.638L43.0735 212.151C32.4633 203.828 25.8972 201.546 23.6196 201.323C23.2354 201.334 22.8891 201.345 22.9375 201.334C22.9375 201.334 25.2452 198.848 25.7023 197.56C29.4497 196.731 38.7612 202.529 42.7164 205.638Z"
     fill="#9B6A52"
     id="path1"
     style="fill:#666666;opacity:0.33839251" />
  <path
     d="M45.6014 182.496L44.0271 186.493C53.7768 193.24 59.1361 195.906 60.597 196.396L62.21 192.483C59.4451 190.476 49.9855 184.988 45.6014 182.496Z"
     fill="#9B6A52"
     id="path2"
     style="fill:#666666;opacity:0.33839251" />
  <path
     d="M18.8235 228.617L24.4205 226.05C19.8457 207.841 23.8323 199.256 26.3975 197.24L18.8206 202.428C14.6756 206.102 17.0955 221.418 18.8235 228.617Z"
     fill="#C51D0F"
     id="path3"
     style="fill:#a7ac93;opacity:0.33839251" />
  <path
     d="M48.1021 209.845L42.7941 212.279C39.4075 191.2 39.8537 186.229 40.5 186.379L45.7288 182.437C43.2731 185.621 46.2878 202.035 48.1021 209.845Z"
     fill="#AA1C06"
     id="path4"
     style="fill:#a7ac93;opacity:0.33839251" />
  <path
     d="M62.7164 108.638L63.0735 115.151C52.4633 106.828 45.8972 104.546 43.6196 104.323C43.2354 104.334 42.8891 104.345 42.9375 104.334C42.9375 104.334 45.2452 101.848 45.7023 100.56C49.4497 99.7311 58.7612 105.529 62.7164 108.638Z"
     fill="#9B6A52"
     id="path5"
     style="fill:#666666;opacity:0.33839251" />
  <path
     d="M65.6014 85.4957L64.0271 89.4932C73.7768 96.2395 79.1361 98.906 80.597 99.396L82.21 95.4831C79.4451 93.4758 69.9855 87.9885 65.6014 85.4957Z"
     fill="#9B6A52"
     id="path6"
     style="fill:#666666;opacity:0.33839251" />
  <path
     d="M38.8235 131.617L44.4205 129.05C39.8457 110.841 43.8323 102.256 46.3975 100.24L38.8206 105.428C34.6756 109.102 37.0955 124.418 38.8235 131.617Z"
     fill="#C51D0F"
     id="path7"
     style="fill:#a7ac93;opacity:0.33839251" />
  <path
     d="M68.1021 112.845L62.7941 115.279C59.4075 94.2003 59.8537 89.2292 60.5 89.3785L65.7288 85.4371C63.2731 88.6209 66.2878 105.035 68.1021 112.845Z"
     fill="#AA1C06"
     id="path8"
     style="fill:#a7ac93;opacity:0.33839251" />
  <path
     d="M172.716 84.6384L173.074 91.1514C162.463 82.8284 155.897 80.5457 153.62 80.323C153.235 80.334 152.889 80.3455 152.938 80.3345C152.938 80.3345 155.245 77.8485 155.702 76.5597C159.45 75.7311 168.761 81.5293 172.716 84.6384Z"
     fill="#9B6A52"
     id="path9"
     style="fill:#666666;opacity:0.33839251" />
  <path
     d="M175.601 61.4957L174.027 65.4932C183.777 72.2395 189.136 74.906 190.597 75.396L192.21 71.4831C189.445 69.4758 179.986 63.9885 175.601 61.4957Z"
     fill="#9B6A52"
     id="path10"
     style="fill:#666666;opacity:0.33839251" />
  <path
     d="M148.824 107.617L154.421 105.05C149.846 86.8408 153.832 78.2564 156.398 76.2404L148.821 81.4282C144.676 85.1023 147.095 100.418 148.824 107.617Z"
     fill="#C51D0F"
     id="path11"
     style="fill:#a7ac93;opacity:0.33839251" />
  <path
     d="M178.102 88.8447L172.794 91.2794C169.408 70.2003 169.854 65.2292 170.5 65.3785L175.729 61.4371C173.273 64.6209 176.288 81.0354 178.102 88.8447Z"
     fill="#AA1C06"
     id="path12"
     style="fill:#a7ac93;opacity:0.33839251" />
  <path
     d="M188.716 224.638L189.074 231.151C178.463 222.828 171.897 220.546 169.62 220.323C169.235 220.334 168.889 220.345 168.938 220.334C168.938 220.334 171.245 217.848 171.702 216.56C175.45 215.731 184.761 221.529 188.716 224.638Z"
     fill="#9B6A52"
     id="path13"
     style="fill:#666666;opacity:0.33839251" />
  <path
     d="M191.601 201.496L190.027 205.493C199.777 212.24 205.136 214.906 206.597 215.396L208.21 211.483C205.445 209.476 195.986 203.988 191.601 201.496Z"
     fill="#9B6A52"
     id="path14"
     style="fill:#666666;opacity:0.33839251" />
  <path
     d="M164.824 247.617L170.421 245.05C165.846 226.841 169.832 218.256 172.398 216.24L164.821 221.428C160.676 225.102 163.095 240.418 164.824 247.617Z"
     fill="#C51D0F"
     id="path15"
     style="fill:#a7ac93;opacity:0.33839251" />
  <path
     d="M194.102 228.845L188.794 231.279C185.408 210.2 185.854 205.229 186.5 205.379L191.729 201.437C189.273 204.621 192.288 221.035 194.102 228.845Z"
     fill="#AA1C06"
     id="path16"
     style="fill:#a7ac93;opacity:0.33839251" />
  <path
     d="M83.8721 173.701L84.2293 180.214C73.619 171.891 67.053 169.608 64.7753 169.386C64.3911 169.396 64.0448 169.408 64.0933 169.397C64.0933 169.397 66.4009 166.911 66.858 165.622C70.6054 164.794 79.917 170.592 83.8721 173.701Z"
     fill="#A36C52"
     id="path17"
     style="fill:#666666;opacity:0.33839251" />
  <path
     d="M86.7571 150.558L85.1829 154.556C94.9326 161.302 100.292 163.969 101.753 164.458L103.366 160.546C100.601 158.538 91.1413 153.051 86.7571 150.558Z"
     fill="#9B6A52"
     id="path18"
     style="fill:#666666;opacity:0.33839251" />
  <path
     d="M59.9793 196.68L65.5763 194.112C61.0014 175.903 64.9881 167.319 67.5533 165.303L59.9764 170.491C55.8314 174.165 58.2512 189.481 59.9793 196.68Z"
     fill="#A21904"
     id="path19"
     style="fill:#a7ac93;opacity:0.33839251" />
  <path
     d="M89.2579 177.907L83.9499 180.342C80.5633 159.263 81.0094 154.292 81.6558 154.441L86.8846 150.5C84.4289 153.683 87.4436 170.098 89.2579 177.907Z"
     fill="#9C1905"
     id="path20"
     style="fill:#a7ac93;opacity:0.33839251" />
  <path
     d="M53.8721 46.7009L54.2293 53.2139C43.619 44.8909 37.053 42.6082 34.7753 42.3855C34.3911 42.3965 34.0448 42.408 34.0933 42.397C34.0933 42.397 36.4009 39.911 36.858 38.6222C40.6054 37.7936 49.917 43.5918 53.8721 46.7009Z"
     fill="#A36C52"
     id="path21"
     style="fill:#666666;opacity:0.33839251" />
  <path
     d="M56.7571 23.5582L55.1829 27.5557C64.9326 34.302 70.2918 36.9685 71.7527 37.4585L73.3658 33.5456C70.6009 31.5383 61.1413 26.051 56.7571 23.5582Z"
     fill="#9B6A52"
     id="path22"
     style="fill:#666666;opacity:0.33839251" />
  <path
     d="M29.9793 69.6795L35.5763 67.1123C31.0014 48.9033 34.9881 40.3189 37.5533 38.3029L29.9764 43.4907C25.8314 47.1648 28.2512 62.4808 29.9793 69.6795Z"
     fill="#A21904"
     id="path23"
     style="fill:#a7ac93;opacity:0.33839251" />
  <path
     d="M59.2579 50.9072L53.9499 53.3419C50.5633 32.2628 51.0094 27.2917 51.6558 27.441L56.8846 23.4996C54.4289 26.6834 57.4436 43.0979 59.2579 50.9072Z"
     fill="#9C1905"
     id="path24"
     style="fill:#a7ac93;opacity:0.33839251" />
  <path
     d="M213.872 52.7009L214.229 59.2139C203.619 50.8909 197.053 48.6082 194.775 48.3855C194.391 48.3965 194.045 48.408 194.093 48.397C194.093 48.397 196.401 45.911 196.858 44.6222C200.605 43.7936 209.917 49.5918 213.872 52.7009Z"
     fill="#A36C52"
     id="path25"
     style="fill:#666666;opacity:0.33839251" />
  <path
     d="M216.757 29.5582L215.183 33.5557C224.933 40.302 230.292 42.9685 231.753 43.4585L233.366 39.5456C230.601 37.5383 221.141 32.051 216.757 29.5582Z"
     fill="#9B6A52"
     id="path26"
     style="fill:#666666;opacity:0.33839251" />
  <path
     d="M189.979 75.6795L195.576 73.1123C191.001 54.9033 194.988 46.3189 197.553 44.3029L189.976 49.4907C185.831 53.1648 188.251 68.4808 189.979 75.6795Z"
     fill="#A21904"
     id="path27"
     style="fill:#a7ac93;opacity:0.33839251" />
  <path
     d="M219.258 56.9072L213.95 59.3419C210.563 38.2628 211.009 33.2917 211.656 33.441L216.885 29.4996C214.429 32.6834 217.444 49.0979 219.258 56.9072Z"
     fill="#9C1905"
     id="path28"
     style="fill:#a7ac93;opacity:0.33839251" />
  <path
     d="M229.872 192.701L230.229 199.214C219.619 190.891 213.053 188.608 210.775 188.386C210.391 188.396 210.045 188.408 210.093 188.397C210.093 188.397 212.401 185.911 212.858 184.622C216.605 183.794 225.917 189.592 229.872 192.701Z"
     fill="#A36C52"
     id="path29"
     style="fill:#666666;opacity:0.33839251" />
  <path
     d="M232.757 169.558L231.183 173.556C240.933 180.302 246.292 182.969 247.753 183.458L249.366 179.546C246.601 177.538 237.141 172.051 232.757 169.558Z"
     fill="#9B6A52"
     id="path30"
     style="fill:#666666;opacity:0.33839251" />
  <path
     d="M205.979 215.68L211.576 213.112C207.001 194.903 210.988 186.319 213.553 184.303L205.976 189.491C201.831 193.165 204.251 208.481 205.979 215.68Z"
     fill="#A21904"
     id="path31"
     style="fill:#a7ac93;opacity:0.33839251" />
  <path
     d="M235.258 196.907L229.95 199.342C226.563 178.263 227.009 173.292 227.656 173.441L232.885 169.5C230.429 172.683 233.444 189.098 235.258 196.907Z"
     fill="#9C1905"
     id="path32"
     style="fill:#a7ac93;opacity:0.33839251" />
</svg>
